<?xml version="1.0" standalone="no"?>
<!DOCTYPE svg PUBLIC "-//W3C//DTD SVG 20010904//EN"
 "http://www.w3.org/TR/2001/REC-SVG-20010904/DTD/svg10.dtd">
<svg version="1.0" xmlns="http://www.w3.org/2000/svg"
 width="800.000000pt" height="648.000000pt" viewBox="0 0 800.000000 648.000000"
 preserveAspectRatio="xMidYMid meet">
<metadata>
Created by potrace 1.11, written by Peter Selinger 2001-2013
</metadata>
<g transform="translate(0.000000,648.000000) scale(0.100000,-0.100000)"
fill="#000000" stroke="none">
<path d="M4249 6466 c-63 -22 -111 -58 -224 -166 -61 -58 -194 -177 -295 -266
-102 -88 -313 -277 -470 -420 -599 -543 -835 -744 -1150 -979 -406 -302 -849
-558 -1215 -702 -69 -26 -125 -50 -125 -53 0 -10 172 9 273 31 217 45 394 124
707 314 419 256 747 490 1345 960 451 355 745 577 745 562 0 -17 -584 -785
-1225 -1612 -786 -1014 -1143 -1489 -1522 -2029 -188 -266 -501 -737 -645
-971 -368 -593 -403 -655 -433 -771 -33 -126 -11 -226 70 -311 l50 -54 60 21
c133 46 237 139 433 386 80 101 188 217 380 405 148 145 443 455 658 689 481
525 837 908 1368 1470 771 816 1820 1910 1833 1910 2 0 -74 -114 -168 -252
-526 -774 -784 -1195 -1018 -1658 -262 -517 -354 -778 -368 -1040 -10 -195 31
-300 139 -354 175 -87 414 -6 703 236 50 41 171 156 270 254 99 99 272 265
385 369 212 197 607 584 1345 1319 511 509 1082 1053 1093 1042 1 -2 -53 -86
-121 -187 -579 -859 -1048 -1747 -1256 -2379 -246 -744 -221 -1464 64 -1823
71 -89 247 -208 272 -183 13 13 15 165 3 216 -7 28 -38 115 -70 193 -82 203
-94 264 -93 477 1 341 66 635 265 1205 234 670 518 1279 944 2028 165 290 474
804 532 887 134 189 172 253 193 321 22 73 21 141 -3 194 -10 23 -19 27 -99
40 -96 17 -263 -50 -389 -156 -268 -225 -830 -774 -1160 -1134 -96 -104 -388
-431 -649 -725 -754 -849 -1002 -1111 -1452 -1535 -245 -231 -326 -298 -420
-345 -49 -25 -158 -60 -188 -60 -22 0 141 430 275 728 221 487 460 915 994
1782 90 146 221 360 290 475 70 116 171 282 225 370 104 172 198 356 239 473
34 96 66 256 66 330 l0 60 -52 22 c-36 16 -80 25 -133 28 -152 8 -269 -53
-486 -251 -136 -126 -202 -196 -424 -457 -162 -190 -259 -297 -605 -665 -540
-576 -712 -773 -1315 -1515 -254 -313 -510 -619 -660 -790 -224 -257 -605
-657 -605 -636 0 10 391 592 1170 1741 320 473 813 1207 1095 1630 282 424
545 811 585 860 93 118 141 213 147 297 7 84 -10 146 -43 158 -35 14 -92 12
-135 -4z"/>
</g>
</svg>
